<svg width="674" height="397" viewBox="0 0 674 397" fill="none" xmlns="http://www.w3.org/2000/svg">
<path d="M378.871 33.367L605.829 167.05C629.796 181.167 629.796 215.833 605.829 229.95L378.871 363.633C353.032 378.853 320.969 378.853 295.129 363.633L68.171 229.95C44.2038 215.833 44.2038 181.167 68.171 167.05L295.129 33.367C320.968 18.1472 353.031 18.1472 378.871 33.367Z" fill="#87ADAB" stroke="#1C2B59" stroke-width="15"/>
<path d="M258.342 282C258.342 283.657 256.999 285 255.342 285H235C233.343 285 232 283.657 232 282V156C232 154.343 233.343 153 235 153H255.342C256.999 153 258.342 154.343 258.342 156V209.928C258.342 212.819 262.027 214.037 263.75 211.717L306.454 154.211C307.02 153.449 307.914 153 308.863 153H331.292C333.761 153 335.173 155.816 333.696 157.795L296.848 207.149C296.147 208.088 296.057 209.35 296.618 210.379L334.859 280.565C335.948 282.564 334.501 285 332.224 285H309.141C308.04 285 307.027 284.397 306.503 283.429L280.679 235.741C279.635 233.814 276.945 233.62 275.636 235.377L258.936 257.784C258.55 258.302 258.342 258.931 258.342 259.577V282Z" fill="#F7F6F1"/>
<path d="M423.533 282C423.533 283.657 422.19 285 420.533 285H400.283C398.626 285 397.283 283.657 397.283 282V182.418C397.283 180.762 395.94 179.418 394.283 179.418H360.725C359.068 179.418 357.725 178.075 357.725 176.418V156C357.725 154.343 359.068 153 360.725 153H460C461.657 153 463 154.343 463 156V176.418C463 178.075 461.657 179.418 460 179.418H426.533C424.876 179.418 423.533 180.762 423.533 182.418V282Z" fill="#F7F6F1"/>
<path d="M312.812 98.625C312.042 100.125 311.312 101.594 310.625 103.031C309.938 104.448 309.292 105.76 308.688 106.969C308.438 107.469 308.188 108.052 307.938 108.719C307.708 109.365 307.594 109.938 307.594 110.438C307.594 110.729 307.656 110.958 307.781 111.125C307.927 111.292 308.156 111.375 308.469 111.375C308.906 111.375 309.458 111.25 310.125 111C310.792 110.729 311.51 110.385 312.281 109.969C313.052 109.531 313.865 109.042 314.719 108.5C315.573 107.938 316.406 107.365 317.219 106.781C318.052 106.177 318.844 105.583 319.594 105C320.344 104.396 321.01 103.844 321.594 103.344C321.927 103.115 322.24 103 322.531 103C322.885 103 323.177 103.156 323.406 103.469C323.635 103.781 323.75 104.177 323.75 104.656C323.75 105.135 323.635 105.625 323.406 106.125C323.177 106.625 322.76 107.115 322.156 107.594C320.802 108.823 319.427 109.99 318.031 111.094C316.656 112.198 315.281 113.177 313.906 114.031C312.552 114.865 311.208 115.531 309.875 116.031C308.542 116.531 307.25 116.781 306 116.781C305.167 116.781 304.469 116.667 303.906 116.438C303.344 116.229 302.885 115.938 302.531 115.562C302.198 115.167 301.958 114.719 301.812 114.219C301.667 113.698 301.594 113.146 301.594 112.562C301.594 111.521 301.771 110.438 302.125 109.312C302.479 108.188 302.875 107.177 303.312 106.281C303.938 104.99 304.552 103.708 305.156 102.438C305.781 101.167 306.385 99.9479 306.969 98.7812H305.625C304.458 98.7812 303.656 98.5938 303.219 98.2188C302.781 97.8438 302.562 97.4167 302.562 96.9375C302.562 96.7292 302.625 96.4792 302.75 96.1875C302.896 95.875 303.094 95.5938 303.344 95.3438C303.615 95.0729 303.938 94.8438 304.312 94.6562C304.688 94.4688 305.115 94.375 305.594 94.375H308.969L315.562 81.2812C315.979 80.4896 316.49 79.9271 317.094 79.5938C317.719 79.2396 318.365 79.0625 319.031 79.0625C319.656 79.0625 320.229 79.2292 320.75 79.5625C321.271 79.8958 321.531 80.4479 321.531 81.2188C321.531 81.6146 321.438 82.0208 321.25 82.4375C321.083 82.8333 320.854 83.3021 320.562 83.8438C320.375 84.1979 320.146 84.625 319.875 85.125C319.604 85.6042 319.312 86.125 319 86.6875C318.708 87.2292 318.396 87.8021 318.062 88.4062C317.75 89.0104 317.438 89.5938 317.125 90.1562C316.417 91.4896 315.667 92.8958 314.875 94.375H325.062C325.562 94.375 326.021 94.4062 326.438 94.4688C326.854 94.5104 327.208 94.6146 327.5 94.7812C327.812 94.9271 328.052 95.1354 328.219 95.4062C328.385 95.6771 328.469 96.0417 328.469 96.5C328.469 96.7292 328.427 96.9583 328.344 97.1875C328.281 97.4167 328.146 97.625 327.938 97.8125C327.75 98 327.479 98.1562 327.125 98.2812C326.792 98.4062 326.354 98.4896 325.812 98.5312L312.812 98.625ZM317 111.062C317.5 110 318.073 108.823 318.719 107.531C319.365 106.219 320.01 104.927 320.656 103.656C321.323 102.365 321.948 101.146 322.531 100C323.115 98.8333 323.604 97.8438 324 97.0312L334.312 76.75C334.438 76.4792 334.625 76.2188 334.875 75.9688C335.146 75.7188 335.448 75.5 335.781 75.3125C336.115 75.1042 336.469 74.9479 336.844 74.8438C337.219 74.7188 337.594 74.6562 337.969 74.6562C338.885 74.6562 339.521 74.8333 339.875 75.1875C340.229 75.5208 340.406 75.9375 340.406 76.4375C340.406 76.8958 340.292 77.3854 340.062 77.9062C339.833 78.4062 339.573 78.875 339.281 79.3125C338.365 80.875 337.479 82.4583 336.625 84.0625C335.792 85.6458 334.948 87.25 334.094 88.875C333.26 90.4792 332.417 92.0833 331.562 93.6875C330.708 95.2708 329.812 96.8438 328.875 98.4062C329.458 97.8438 330.073 97.2604 330.719 96.6562C331.385 96.0521 332.104 95.5 332.875 95C333.646 94.5 334.49 94.0938 335.406 93.7812C336.323 93.4479 337.344 93.2812 338.469 93.2812C339.135 93.2812 339.771 93.3438 340.375 93.4688C340.979 93.5938 341.51 93.8021 341.969 94.0938C342.427 94.3646 342.792 94.75 343.062 95.25C343.333 95.7292 343.469 96.3229 343.469 97.0312C343.469 97.9688 343.323 98.8333 343.031 99.625C342.76 100.396 342.406 101.135 341.969 101.844C341.531 102.531 341.052 103.198 340.531 103.844C340.01 104.469 339.51 105.115 339.031 105.781C338.573 106.427 338.167 107.104 337.812 107.812C337.479 108.521 337.271 109.292 337.188 110.125C337.188 110.167 337.177 110.208 337.156 110.25C337.156 110.292 337.156 110.333 337.156 110.375C337.156 110.792 337.292 111.052 337.562 111.156C337.854 111.26 338.219 111.312 338.656 111.312C339.219 111.312 339.823 111.208 340.469 111C341.115 110.771 341.76 110.479 342.406 110.125C343.073 109.75 343.729 109.333 344.375 108.875C345.042 108.417 345.667 107.948 346.25 107.469C346.854 106.99 347.406 106.531 347.906 106.094C348.406 105.635 348.833 105.24 349.188 104.906C349.375 104.74 349.573 104.615 349.781 104.531C349.99 104.448 350.188 104.406 350.375 104.406C350.75 104.406 351.062 104.552 351.312 104.844C351.583 105.115 351.719 105.49 351.719 105.969C351.719 106.406 351.562 106.906 351.25 107.469C350.958 108.031 350.448 108.594 349.719 109.156C348.573 110.156 347.406 111.115 346.219 112.031C345.031 112.948 343.833 113.76 342.625 114.469C341.417 115.177 340.208 115.74 339 116.156C337.812 116.573 336.646 116.781 335.5 116.781C334.021 116.781 332.833 116.448 331.938 115.781C331.042 115.094 330.594 114.021 330.594 112.562C330.594 111.5 330.771 110.5 331.125 109.562C331.5 108.604 331.948 107.688 332.469 106.812C333.01 105.917 333.583 105.062 334.188 104.25C334.792 103.417 335.323 102.604 335.781 101.812C336.031 101.458 336.219 101.135 336.344 100.844C336.49 100.531 336.562 100.198 336.562 99.8438C336.562 99.5312 336.479 99.2812 336.312 99.0938C336.146 98.8854 335.885 98.7812 335.531 98.7812C334.302 98.7812 333.167 99.0833 332.125 99.6875C331.083 100.292 330.125 101.062 329.25 102C328.375 102.938 327.562 103.969 326.812 105.094C326.062 106.198 325.365 107.26 324.719 108.281C324.427 108.74 324.125 109.271 323.812 109.875C323.521 110.458 323.208 111.062 322.875 111.688C322.562 112.312 322.229 112.938 321.875 113.562C321.521 114.167 321.146 114.708 320.75 115.188C320.375 115.667 319.969 116.052 319.531 116.344C319.115 116.635 318.677 116.781 318.219 116.781C317.49 116.781 316.927 116.562 316.531 116.125C316.135 115.708 315.938 115.177 315.938 114.531C315.938 114.052 316.021 113.552 316.188 113.031C316.354 112.49 316.625 111.833 317 111.062ZM360.969 97.5625C360.865 97.5417 360.771 97.5312 360.688 97.5312C360.604 97.5312 360.51 97.5312 360.406 97.5312C359.615 97.5312 358.875 97.6875 358.188 98C357.5 98.3125 356.865 98.7292 356.281 99.25C355.719 99.75 355.208 100.323 354.75 100.969C354.312 101.615 353.917 102.26 353.562 102.906C353.208 103.531 352.906 104.135 352.656 104.719C352.427 105.302 352.25 105.792 352.125 106.188C352.854 105.812 353.604 105.385 354.375 104.906C355.167 104.427 355.906 103.969 356.594 103.531C357.281 103.094 357.875 102.698 358.375 102.344C358.896 101.99 359.26 101.75 359.469 101.625C360.406 101.042 361.052 100.5 361.406 100C361.76 99.4792 361.938 99.0312 361.938 98.6562C361.938 98.3438 361.833 98.0938 361.625 97.9062C361.438 97.7188 361.219 97.6042 360.969 97.5625ZM362.094 93.25C363.823 93.25 365.115 93.6667 365.969 94.5C366.823 95.3333 367.25 96.4896 367.25 97.9688C367.25 98.8438 367.021 99.7604 366.562 100.719C366.104 101.677 365.312 102.656 364.188 103.656C363.062 104.635 361.552 105.646 359.656 106.688C357.781 107.708 355.427 108.74 352.594 109.781C352.698 110.385 353.021 110.865 353.562 111.219C354.104 111.552 354.823 111.719 355.719 111.719C356.677 111.719 357.698 111.583 358.781 111.312C359.885 111.021 360.969 110.656 362.031 110.219C363.115 109.781 364.167 109.312 365.188 108.812C366.208 108.292 367.125 107.802 367.938 107.344C368.771 106.885 369.458 106.49 370 106.156C370.562 105.823 370.938 105.615 371.125 105.531C371.312 105.406 371.479 105.333 371.625 105.312C371.792 105.292 371.938 105.281 372.062 105.281C372.312 105.281 372.521 105.344 372.688 105.469C372.854 105.573 372.99 105.708 373.094 105.875C373.219 106.021 373.302 106.188 373.344 106.375C373.385 106.542 373.406 106.688 373.406 106.812C373.406 107 373.385 107.229 373.344 107.5C373.302 107.75 373.146 108.042 372.875 108.375C372.771 108.479 372.417 108.76 371.812 109.219C371.229 109.677 370.469 110.219 369.531 110.844C368.594 111.469 367.5 112.135 366.25 112.844C365.021 113.531 363.708 114.167 362.312 114.75C360.938 115.333 359.5 115.812 358 116.188C356.5 116.583 355.021 116.781 353.562 116.781C352.312 116.781 351.198 116.542 350.219 116.062C349.26 115.583 348.438 114.938 347.75 114.125C347.083 113.312 346.573 112.375 346.219 111.312C345.865 110.25 345.688 109.135 345.688 107.969C345.688 107.073 345.865 106.094 346.219 105.031C346.573 103.948 347.083 102.865 347.75 101.781C348.417 100.698 349.229 99.6458 350.188 98.625C351.167 97.5833 352.26 96.6667 353.469 95.875C354.677 95.0833 356 94.4479 357.438 93.9688C358.896 93.4896 360.448 93.25 362.094 93.25Z" fill="white"/>
</svg>
