<svg width="4056" height="2722" viewBox="0 0 4056 2722" fill="none" xmlns="http://www.w3.org/2000/svg">
<path d="M2028 0H0V1360.67V2721.33H2028H4056V1360.67V0H2028ZM3920.8 2216.27C3918.4 2228.4 3916 2235.6 3908.53 2252.93C3900.93 2270.4 3900.8 2276.53 3907.2 2291.47C3925.6 2333.73 3925.47 2376.13 3907.07 2422C3900.27 2438.67 3900 2445.6 3905.33 2460C3920.53 2501.07 3917.07 2536.27 3895.47 2559.6C3886.4 2569.47 3876.8 2575.2 3859.6 2581.2C3846.53 2585.73 3845.2 2585.87 3828 2585.87C3807.6 2585.73 3796.67 2583.47 3778.13 2575.2C3772.13 2572.53 3764 2569.47 3760 2568.27C3752.67 2566.27 3752.67 2566.27 3743.33 2570.4C3720.27 2580.4 3706 2583.33 3679.33 2583.2C3655.2 2583.07 3637.6 2580.13 3608.67 2571.2C3588.53 2564.93 3581.47 2564.8 3569.07 2570.4C3557.07 2575.87 3541.6 2580.67 3527.2 2583.47C3517.87 2585.2 3510.53 2585.47 3493.33 2584.93C3468.8 2584.13 3454.8 2581.33 3432.27 2572.8C3415.6 2566.4 3411.07 2566.53 3388.67 2574C3362.27 2582.8 3343.07 2585.87 3318 2584.93C3295.07 2584.13 3281.2 2581.2 3258.8 2572.13C3250.8 2568.93 3243.07 2566.67 3240 2566.67C3236.53 2566.67 3228.93 2569.07 3218.93 2573.33C3196.8 2582.53 3184.53 2585.33 3161.87 2586.27C3134.67 2587.33 3117.07 2584.4 3083.73 2573.2C3075.2 2570.4 3066 2568 3063.47 2568C3060.8 2568 3052.4 2570.4 3044.8 2573.2C2995.47 2591.73 2956.67 2591.2 2910 2571.47C2898.53 2566.53 2892.8 2566.93 2872.67 2574.13C2841.33 2585.2 2814.8 2589.2 2789.73 2586.67C2772.13 2584.8 2763.47 2582.8 2743.73 2576C2723.33 2568.93 2719.2 2569.07 2696.53 2576.67C2650.27 2592.27 2608.27 2591.6 2566.8 2574.67C2550.13 2567.87 2546 2567.87 2526.93 2574.67C2481.33 2590.93 2438.67 2590.27 2393.47 2572.8C2376.93 2566.4 2369.33 2566.27 2354.27 2572.53C2332.93 2581.47 2308.27 2586.67 2288 2586.67C2270.67 2586.67 2253.47 2583.33 2229.87 2575.33C2201.33 2565.6 2195.6 2565.47 2174.27 2573.73C2155.33 2581.2 2143.73 2584 2128.4 2585.2C2103.6 2586.93 2081.6 2583.87 2052 2574.4C2027.33 2566.53 2024.27 2566.53 2002.67 2573.87C1974.67 2583.33 1961.6 2585.73 1937.33 2585.87C1909.47 2586 1889.87 2581.6 1867.33 2570.27C1855.73 2564.4 1848.8 2564.8 1829.2 2572.53C1798.8 2584.4 1771.33 2589.2 1747.87 2586.67C1732 2584.93 1722 2582.13 1704.67 2574.53C1691.6 2568.8 1690.93 2568.67 1677.33 2568.67C1664 2568.8 1662.67 2569.07 1649.6 2574.4C1631.73 2581.73 1620.27 2584.8 1604 2586.67C1581.87 2589.33 1554.8 2584.93 1531.33 2575.2C1506.8 2564.93 1505.07 2564.8 1485.87 2573.2C1445.47 2590.67 1406.4 2592.67 1367.47 2579.07C1360.13 2576.53 1351.07 2572.93 1347.47 2571.07C1337.73 2566 1332.27 2566.53 1315.2 2573.73C1266.8 2594.13 1223.07 2593.33 1176.93 2571.2C1171.73 2568.67 1165.87 2566.67 1163.87 2566.67C1158.93 2566.67 1148.93 2570.4 1126.67 2580.27C1094.67 2594.67 1080.13 2598.27 1060 2596.93C1046.4 2596.13 1035.47 2592.53 1025.47 2585.73C1021.47 2582.93 1014.93 2578.4 1010.93 2575.73C1001.6 2569.47 993.2 2567.47 979.467 2568.4C966.533 2569.2 959.467 2571.87 940.933 2582.67C923.467 2592.8 914.133 2596 900 2596.93C885.333 2597.87 871.067 2594.4 854.933 2586C815.6 2565.47 819.2 2565.73 779.733 2579.07C744.933 2590.93 733.467 2593.6 715.333 2593.73C698.267 2593.87 691.2 2591.73 668 2579.73C651.6 2571.33 649.067 2570.4 640 2569.73C627.867 2568.8 620 2570.8 600.667 2579.6C572 2592.67 553.6 2596.4 531.733 2593.6C518.8 2592 517.733 2591.6 485.6 2574.53C475.067 2568.93 473.867 2568.67 463.6 2568.8C453.067 2568.8 451.867 2569.2 432.533 2577.6C421.333 2582.53 408.533 2587.6 403.867 2588.8C391.467 2592.13 367.2 2591.87 349.333 2588.13C336 2585.33 331.6 2583.73 304.667 2572.53C288.267 2565.73 278.667 2565.6 266.533 2571.87C261.867 2574.27 255.333 2577.73 252 2579.33C230 2590.53 189.067 2588.27 164.4 2574.4C144.8 2563.47 129.333 2533.73 129.333 2507.07C129.333 2493.2 132.533 2479.07 139.6 2462C148.267 2440.93 148.533 2434.8 141.6 2414C133.2 2388.93 131.6 2379.47 131.6 2356.67C131.6 2334.53 133.067 2325.73 140.933 2299.33C147.733 2276.4 148.133 2267.73 142.667 2252.67C134.933 2230.8 132.267 2221.47 130.133 2209.07C126.133 2186.27 127.733 2170.67 136.4 2142.4C146.133 2110.93 146.133 2090.93 136.267 2067.6C129.6 2052 127.733 2041.73 127.733 2022.67C127.867 2004.4 131.2 1985.87 138.933 1960.8C145.467 1939.47 145.467 1938.4 136 1901.6C124 1855.07 124 1847.87 136 1806C144.533 1776.4 145.067 1767.33 139.6 1751.73C130.8 1726.93 127.067 1698.8 129.333 1676.67C131.067 1660.4 133.2 1651.07 139.467 1633.33C143.733 1621.73 144.533 1617.6 144.533 1608.67C144.533 1599.2 144 1596.8 139.6 1587.07C130.667 1567.47 128.8 1558.4 128.8 1532C128.667 1505.73 130.267 1496 140 1464.8C146.533 1443.73 146.667 1439.47 140.8 1427.07C129.467 1403.47 124.667 1380.67 125.733 1355.33C126.533 1335.87 129.067 1323.33 136.8 1300.4C144.4 1277.6 144.4 1274 136.8 1254.4C120.8 1213.6 121.2 1174.4 138.133 1130.4C144.4 1114.4 144.133 1110.53 135.467 1084.8C126.133 1057.07 123.467 1041.2 124.4 1018.8C125.2 999.467 128 987.2 136 968.533C142.4 953.6 143.067 944.4 138.533 932.267C124.4 894.267 122.133 884.4 122.133 859.333C122.133 838.133 124.533 825.2 132.8 801.2C140.933 777.733 140.667 775.2 128.8 749.067C118.267 725.733 116 717.867 115.067 701.333C114.267 685.6 116.267 676.533 125.867 652C139.6 617.467 140 612.133 130.667 587.2C122.267 564.8 119.867 555.333 119.067 539.333C118.133 520.533 119.733 510.133 128 484.933C131.6 473.733 135.2 459.467 136 453.333L137.6 442L131.6 423.333C123.067 396.667 120.8 381.733 121.733 356.8C122.533 334.133 124.933 322.133 132.8 302.4C139.2 286.4 139.333 279.6 133.6 262.667C122.267 228.8 121.467 204.8 130.8 183.067C141.067 159.2 165.333 140.133 192 135.2C211.867 131.333 227.067 133.467 260 144.267C280 150.933 290.8 151.467 302.533 146.8C326.8 136.933 360.667 131.2 384.667 132.667C401.733 133.733 410.533 135.467 437.067 142.667C471.6 152.133 475.2 152.133 506.667 141.6C537.467 131.2 550.667 130.933 582.667 140C625.333 151.867 634.133 152.133 655.467 142.4C673.6 133.867 676.533 133.2 699.067 132.4C723.067 131.467 734.4 133.067 752.933 140C775.333 148.4 783.6 149.733 808.4 149.067C831.6 148.4 830.667 148.533 862 137.2C872.667 133.333 875.867 132.8 891.333 132.267C912.667 131.6 922.267 133.467 943.733 142.267C956.933 147.6 960.933 148.667 970 149.067C980.133 149.6 982 149.2 1002.8 142.133C1032.8 132 1044.93 130.267 1080 131.067C1110.67 131.733 1116.53 132.933 1132.93 141.067C1156.27 152.8 1166.4 153.733 1183.87 146.133C1220.27 130.267 1257.73 129.333 1301.33 143.467C1330.4 152.8 1344.93 152.667 1366.27 142.933C1382.8 135.333 1396.53 132.8 1419.33 132.933C1442.27 132.933 1456.93 135.867 1487.6 146.133C1499.6 150.133 1510.93 153.333 1512.8 153.333C1514.67 153.333 1524.93 150.4 1535.73 146.8C1563.73 137.467 1574.4 135.467 1596.67 135.467C1621.07 135.333 1632.8 138 1660 149.733C1677.6 157.333 1685.33 157.333 1702 149.733C1744.53 130.4 1780.8 130.133 1838 148.8C1859.73 155.867 1862 155.867 1877.87 148.667C1883.6 146 1894.13 142.133 1901.2 140.267C1912.8 137.2 1916.4 136.8 1939.33 136.8C1968.67 136.667 1979.6 138.533 2009.2 148.667C2030.8 156.133 2036.13 156.267 2051.07 150.133C2076.4 139.867 2092.53 136 2116 135.067C2140.8 134.133 2167.73 138.933 2191.33 148.8C2195.73 150.667 2202.93 152.533 2207.33 152.933C2214.4 153.6 2217.33 152.933 2233.33 147.467C2281.87 130.667 2319.33 130.667 2362.4 147.333C2379.47 153.867 2386 153.733 2408.53 146C2430.53 138.533 2446.8 135.733 2468 135.733C2489.33 135.6 2505.2 138.4 2528 146.267C2550.53 154 2554.93 154.133 2572.27 147.6C2620.13 129.467 2666.67 128.933 2710.67 146C2726.67 152.133 2731.47 151.867 2755.33 143.6C2779.87 135.067 2794.8 132.8 2822.4 133.733C2847.2 134.533 2861.33 137.333 2884.53 146C2899.47 151.6 2904.13 151.733 2915.07 147.2C2943.2 135.2 2960.93 131.467 2988 131.467C3011.73 131.467 3024 133.867 3048 143.067C3067.87 150.667 3076.53 150.533 3102 142.267C3130.13 133.2 3140.13 131.333 3163.33 131.333C3187.07 131.333 3198.93 133.467 3219.87 141.733C3233.2 146.933 3234.8 147.2 3248 147.2C3260.8 147.2 3263.47 146.8 3278.67 141.733C3302.93 133.867 3310.67 132.667 3336.67 132.8C3362.27 132.8 3376.4 135.2 3400.53 143.333C3421.87 150.533 3423.2 150.667 3444 143.467C3470.93 134.133 3484.8 131.6 3508.67 131.6C3531.87 131.6 3546.67 134.133 3569.33 142.267C3588.13 148.933 3596.4 148.933 3617.33 142.4C3662.67 128.267 3701.73 129.2 3749.2 145.6C3767.2 151.867 3767.47 151.867 3789.33 142.533C3809.07 134.267 3818.8 132 3834.8 132C3859.6 132 3880.27 140.267 3896.8 156.667C3902.4 162.267 3907.6 168.933 3909.73 173.333C3917.73 190 3921.87 217.467 3918.67 233.6C3917.87 238.267 3914.53 247.733 3911.33 254.667C3903.87 271.067 3902.67 275.733 3902.67 289.067C3902.67 298.8 3903.47 302.533 3909.2 319.733C3913.2 331.467 3916.53 344.133 3917.47 351.333C3920.4 374.267 3916.93 403.333 3907.47 432.667C3902.13 449.333 3902.93 458.667 3913.33 496.667C3916.8 509.6 3917.73 516 3918.27 530.4C3919.33 554.933 3916.8 568.667 3906 598.533C3900.67 613.333 3901.07 623.067 3907.87 643.333C3922 685.867 3922 715.867 3907.87 759.6C3899.33 786.133 3899.2 791.733 3906.67 811.2C3915.2 833.6 3917.73 848.933 3916.93 872C3916.13 893.467 3914.27 903.6 3906.53 927.733C3899.73 949.2 3899.73 954.667 3906.67 974.267C3914.53 996.533 3916.53 1009.07 3916.53 1033.33C3916.4 1056.93 3913.87 1071.87 3905.6 1096.67C3899.07 1116.27 3899.07 1126.67 3905.2 1141.87C3919.73 1177.47 3918.93 1214.93 3903.07 1253.2C3899.33 1262.27 3898.27 1267.07 3897.73 1276C3897.07 1287.47 3897.07 1287.6 3904.53 1306.53C3916.53 1336.8 3918.8 1350.53 3915.33 1370.67C3912.27 1388.27 3907.33 1408.93 3902.53 1424.67C3896 1445.47 3896.53 1452.13 3906.4 1475.33C3920.93 1510 3920 1547.87 3903.2 1590.67C3899.07 1601.2 3898.27 1605.07 3898.27 1613.33C3898.13 1622.4 3898.8 1624.93 3904.93 1640C3913.07 1660 3915.6 1669.6 3917.6 1687.6C3920.13 1710.13 3916 1734.53 3905.73 1757.73C3903.2 1763.47 3900.53 1771.33 3899.6 1775.33C3897.87 1783.6 3899.33 1789.87 3907.07 1807.33C3912.93 1820.4 3915.6 1830.4 3917.47 1846.13C3920 1867.47 3915.33 1896.8 3905.33 1922C3902.4 1929.33 3900.8 1935.87 3900.4 1942.67C3899.73 1952.13 3900 1953.47 3905.07 1965.33C3920.93 2002.93 3923.6 2027.2 3914.93 2058C3903.87 2096.93 3904 2121.33 3915.33 2154.8C3917.87 2162.4 3920.53 2171.07 3921.2 2174C3923.07 2182.27 3922.8 2205.47 3920.8 2216.27Z" fill="#1C2C59"/>
</svg>
