<svg width="525" height="220" viewBox="0 0 525 220" fill="none" xmlns="http://www.w3.org/2000/svg">
<path d="M17.0136 148.391C17.0136 150.048 15.6704 151.391 14.0136 151.391H3.76172C2.10487 151.391 0.761719 150.048 0.761719 148.391V72.7168C0.761719 71.0599 2.10486 69.7167 3.76172 69.7167H14.0136C15.6704 69.7167 17.0136 71.0599 17.0136 72.7167V101.461C17.0136 104.354 20.7033 105.571 22.4245 103.246L46.3527 70.9315C46.9185 70.1674 47.813 69.7167 48.7637 69.7167H59.7392C62.2064 69.7167 63.6188 72.5291 62.1456 74.5082L41.2058 102.637C40.5076 103.574 40.4179 104.833 40.9761 105.86L63.3045 146.959C64.3906 148.958 62.9434 151.391 60.6685 151.391H49.0417C47.9393 151.391 46.9257 150.787 46.4019 149.816L31.6529 122.502C30.61 120.57 27.9143 120.376 26.6052 122.138L17.6056 134.248C17.2212 134.765 17.0136 135.393 17.0136 136.037V148.391Z" fill="#1C2C59"/>
<path d="M101.093 148.391C101.093 150.048 99.7496 151.391 98.0928 151.391H87.8409C86.1841 151.391 84.8409 150.048 84.8409 148.391V72.7168C84.8409 71.0599 86.1841 69.7167 87.8409 69.7167H98.0928C99.7496 69.7167 101.093 71.0599 101.093 72.7167V148.391Z" fill="#1C2C59"/>
<path d="M161.898 148.391C161.898 150.048 160.555 151.391 158.898 151.391H148.703C147.046 151.391 145.703 150.048 145.703 148.391V89.063C145.703 87.4062 144.36 86.063 142.703 86.063H124.297C122.64 86.063 121.297 84.7199 121.297 83.063V72.7168C121.297 71.0599 122.64 69.7167 124.297 69.7167H183.248C184.905 69.7167 186.248 71.0599 186.248 72.7167V83.063C186.248 84.7199 184.905 86.063 183.248 86.063H164.898C163.242 86.063 161.898 87.4062 161.898 89.063V148.391Z" fill="#1C2C59"/>
<path d="M267.376 140.853C268.132 142.104 267.884 143.728 266.723 144.616C263.461 147.113 259.887 149.087 256.001 150.537C251.319 152.283 246.468 153.157 241.448 153.157C237.597 153.157 233.878 152.644 230.292 151.619C226.744 150.632 223.403 149.227 220.269 147.404C217.174 145.544 214.342 143.322 211.775 140.74C209.208 138.158 207 135.311 205.15 132.197C203.338 129.046 201.922 125.685 200.903 122.116C199.921 118.509 199.431 114.769 199.431 110.896C199.431 107.023 199.921 103.283 200.903 99.6754C201.922 96.0682 203.338 92.7078 205.15 89.5943C207 86.4427 209.208 83.576 211.775 80.994C214.342 78.412 217.174 76.2097 220.269 74.3871C223.403 72.5266 226.744 71.1027 230.292 70.1154C233.878 69.0902 237.597 68.5776 241.448 68.5776C246.468 68.5776 251.319 69.451 256.001 71.1976C259.895 72.619 263.475 74.5923 266.743 77.1173C267.894 78.0072 268.136 79.6233 267.384 80.8687L262.145 89.5353C261.111 91.2457 258.721 91.4772 257.145 90.248C255.475 88.9453 253.64 87.8731 251.64 87.0313C248.394 85.6264 244.996 84.9239 241.448 84.9239C237.861 84.9239 234.501 85.6074 231.368 86.9743C228.235 88.3412 225.498 90.2018 223.157 92.556C220.817 94.8721 218.967 97.625 217.608 100.815C216.249 103.966 215.569 107.326 215.569 110.896C215.569 114.465 216.249 117.825 217.608 120.977C218.967 124.09 220.817 126.824 223.157 129.178C225.498 131.533 228.235 133.393 231.368 134.76C234.501 136.127 237.861 136.81 241.448 136.81C244.996 136.81 248.394 136.127 251.64 134.76C253.642 133.894 255.478 132.805 257.149 131.491C258.721 130.257 261.111 130.489 262.145 132.199L267.376 140.853Z" fill="#1C2C59"/>
<path d="M305.991 148.391C305.991 150.048 304.647 151.391 302.991 151.391H292.739C291.082 151.391 289.739 150.048 289.739 148.391V72.7168C289.739 71.0599 291.082 69.7167 292.739 69.7167H302.991C304.647 69.7167 305.991 71.0599 305.991 72.7167V99.4093C305.991 101.066 307.334 102.409 308.991 102.409H335.438C337.095 102.409 338.438 101.066 338.438 99.4093V72.7167C338.438 71.0599 339.781 69.7167 341.438 69.7167H351.69C353.346 69.7167 354.69 71.0599 354.69 72.7167V148.391C354.69 150.048 353.346 151.391 351.69 151.391H341.438C339.781 151.391 338.438 150.048 338.438 148.391V121.756C338.438 120.099 337.095 118.756 335.438 118.756H308.991C307.334 118.756 305.991 120.099 305.991 121.756V148.391Z" fill="#1C2C59"/>
<path d="M437.07 148.391C437.07 150.048 435.727 151.391 434.07 151.391H384.406C382.749 151.391 381.406 150.048 381.406 148.391V72.7168C381.406 71.0599 382.749 69.7167 384.406 69.7167H434.07C435.727 69.7167 437.07 71.0599 437.07 72.7167V83.063C437.07 84.7199 435.727 86.063 434.07 86.063H400.658C399.001 86.063 397.658 87.4062 397.658 89.063V99.4093C397.658 101.066 399.001 102.409 400.658 102.409H421.329C422.986 102.409 424.329 103.752 424.329 105.409V115.756C424.329 117.412 422.986 118.756 421.329 118.756H400.658C399.001 118.756 397.658 120.099 397.658 121.756V132.045C397.658 133.702 399.001 135.045 400.658 135.045H434.07C435.727 135.045 437.07 136.388 437.07 138.045V148.391Z" fill="#1C2C59"/>
<path d="M525 148.391C525 150.048 523.657 151.391 522 151.391H509.34C508.272 151.391 507.285 150.824 506.747 149.901L481.893 107.227C480.352 104.58 476.301 105.673 476.301 108.737V148.391C476.301 150.048 474.958 151.391 473.301 151.391H463.049C461.392 151.391 460.049 150.048 460.049 148.391V72.7168C460.049 71.0599 461.392 69.7167 463.049 69.7167H475.708C476.776 69.7167 477.764 70.2848 478.301 71.2081L503.155 113.927C504.696 116.575 508.748 115.482 508.748 112.418V72.7167C508.748 71.0599 510.091 69.7167 511.748 69.7167H522C523.657 69.7167 525 71.0599 525 72.7167V148.391Z" fill="#1C2C59"/>
<path d="M236.255 8.58807V5.54545H250.59V8.58807H245.247V23H241.599V8.58807H236.255ZM255.351 23V5.54545H259.042V12.7472H266.533V5.54545H270.215V23H266.533V15.7898H259.042V23H255.351ZM275.658 23V5.54545H287.419V8.58807H279.348V12.7472H286.814V15.7898H279.348V19.9574H287.453V23H275.658Z" fill="#1C2C59"/>
<line x1="310.886" y1="26.931" x2="524.238" y2="26.931" stroke="#93ADA4"/>
<line y1="-0.5" x2="214.115" y2="-0.5" transform="matrix(-1 0 0 1 214.114 27.431)" stroke="#93ADA4"/>
<line x1="524.238" y1="200.137" x2="0.000244141" y2="200.137" stroke="#93ADA4"/>
<line x1="310.886" y1="7.88171" x2="416.8" y2="7.88171" stroke="#93ADA4"/>
<line y1="-0.5" x2="106.676" y2="-0.5" transform="matrix(-1 0 0 1 214.114 8.38171)" stroke="#93ADA4"/>
<line x1="416.8" y1="219.187" x2="107.438" y2="219.187" stroke="#93ADA4"/>
<line x1="310.886" y1="17.7874" x2="470.138" y2="17.7874" stroke="#93ADA4"/>
<line y1="-0.5" x2="160.015" y2="-0.5" transform="matrix(-1 0 0 1 214.114 18.2874)" stroke="#93ADA4"/>
<line x1="470.138" y1="209.281" x2="54.0999" y2="209.281" stroke="#93ADA4"/>
</svg>
